<svg width="1007" height="275" viewBox="0 0 1007 275" fill="none" xmlns="http://www.w3.org/2000/svg">
<g filter="url(#filter0_d_57_158)">
<path d="M26.3171 177.473L18.6355 163.179L85.9813 126.987L93.6629 141.281L68.5584 154.772L104.944 222.478L87.807 231.688L51.4217 163.982L26.3171 177.473Z" fill="url(#paint0_linear_57_158)"/>
<path d="M145.099 202.107L109.715 116.003L143.686 102.043C150.188 99.3708 156.216 98.2534 161.769 98.6908C167.338 99.0886 172.197 100.908 176.347 104.15C180.513 107.352 183.766 111.798 186.104 117.488C188.454 123.206 189.242 128.632 188.468 133.766C187.684 138.871 185.4 143.479 181.618 147.589C177.863 151.687 172.679 155.096 166.064 157.814L143.319 167.161L137.306 152.53L157.109 144.392C160.584 142.964 163.275 141.301 165.182 139.404C167.089 137.506 168.211 135.374 168.549 133.007C168.915 130.629 168.516 128.025 167.353 125.194C166.178 122.335 164.613 120.161 162.657 118.671C160.73 117.17 158.396 116.392 155.655 116.339C152.93 116.247 149.816 116.92 146.312 118.36L134.036 123.405L163.304 194.626L145.099 202.107ZM175.496 143.814L212.999 174.204L192.902 182.463L155.862 151.883L175.496 143.814Z" fill="url(#paint1_linear_57_158)"/>
<path d="M216.783 75.6419L245.656 164.142L226.945 170.246L198.071 81.7465L216.783 75.6419Z" fill="url(#paint2_linear_57_158)"/>
<path d="M259.429 63.0619L297.712 126.647L298.552 126.446L304.087 52.4194L325.311 47.3616L315.675 145.356L291.002 151.236L238.161 68.1303L259.429 63.0619Z" fill="url(#paint3_linear_57_158)"/>
<path d="M367.408 41.3809L381.551 133.391L362.098 136.381L347.954 44.3712L367.408 41.3809Z" fill="url(#paint4_linear_57_158)"/>
<path d="M417.372 128.792L396.334 130.29L421.776 35.1516L447.076 33.3497L485.699 123.926L464.661 125.424L436.3 55.4438L435.575 55.4955L417.372 128.792ZM413.458 92.3872L463.15 88.848L464.241 104.173L414.549 107.712L413.458 92.3872Z" fill="url(#paint5_linear_57_158)"/>
<path d="M590.452 62.7114C590.376 59.0276 589.042 56.0662 586.451 53.8272C583.86 51.5882 580.208 50.2846 575.495 49.9164C572.292 49.6661 569.553 49.908 567.277 50.642C565.003 51.3458 563.216 52.4371 561.915 53.916C560.644 55.3973 559.93 57.1349 559.775 59.1288C559.584 60.7857 559.819 62.263 560.477 63.5606C561.166 64.8607 562.154 66.017 563.443 67.0295C564.734 68.0119 566.245 68.905 567.975 69.7089C569.708 70.4826 571.569 71.1752 573.558 71.7865L581.74 74.432C585.718 75.6546 589.339 77.1534 592.605 78.9284C595.87 80.7033 598.656 82.7903 600.961 85.1892C603.266 87.5882 604.981 90.3363 606.107 93.4334C607.263 96.5329 607.705 100.017 607.433 103.887C606.959 109.564 605.124 114.375 601.928 118.32C598.765 122.237 594.405 125.133 588.848 127.009C583.323 128.857 576.785 129.486 569.232 128.896C561.74 128.31 555.304 126.652 549.924 123.922C544.575 121.194 540.521 117.458 537.761 112.713C535.033 107.941 533.855 102.21 534.226 95.5218L553.213 97.0055C553.181 100.134 553.87 102.802 555.278 105.009C556.718 107.188 558.727 108.911 561.303 110.176C563.911 111.413 566.907 112.164 570.291 112.428C573.614 112.688 576.537 112.43 579.06 111.654C581.612 110.881 583.636 109.687 585.13 108.071C586.624 106.455 587.458 104.529 587.633 102.294C587.796 100.209 587.313 98.4087 586.186 96.892C585.088 95.3777 583.4 94.0299 581.122 92.8488C578.873 91.6701 576.089 90.5407 572.769 89.4606L562.862 86.1332C555.186 83.6185 549.241 80.16 545.025 75.7576C540.81 71.3553 538.985 65.7263 539.551 58.8708C539.96 53.2492 541.839 48.4568 545.189 44.4935C548.568 40.5326 553.008 37.5817 558.51 35.6407C564.011 33.6997 570.145 32.9937 576.912 33.5224C583.801 34.0607 589.72 35.7087 594.672 38.4665C599.654 41.2266 603.416 44.8184 605.958 49.242C608.5 53.6656 609.6 58.6453 609.259 64.1809L590.452 62.7114Z" fill="url(#paint6_linear_57_158)"/>
<path d="M632.392 56.419L635.316 40.4574L710.519 54.2347L707.595 70.1964L679.561 65.0606L665.71 140.666L646.574 137.16L660.425 61.5548L632.392 56.419Z" fill="url(#paint7_linear_57_158)"/>
<path d="M725.136 154.159L704.933 148.102L762.45 68.1613L786.745 75.4453L790.75 173.831L770.548 167.774L768.837 92.2844L768.14 92.0755L725.136 154.159ZM734.381 118.731L782.101 133.038L777.689 147.754L729.969 133.447L734.381 118.731Z" fill="url(#paint8_linear_57_158)"/>
<path d="M804.51 179.408L840.781 93.6743L874.606 107.984C881.081 110.724 886.117 114.22 889.714 118.472C893.35 122.709 895.477 127.442 896.095 132.672C896.752 137.885 895.882 143.324 893.485 148.99C891.076 154.683 887.776 159.061 883.585 162.125C879.405 165.16 874.524 166.781 868.943 166.986C863.389 167.203 857.319 165.918 850.733 163.132L828.085 153.55L834.248 138.982L853.965 147.324C857.426 148.788 860.501 149.529 863.191 149.549C865.881 149.568 868.186 148.865 870.105 147.439C872.052 146.026 873.622 143.91 874.814 141.091C876.019 138.244 876.462 135.602 876.144 133.164C875.854 130.739 874.764 128.533 872.872 126.549C871.021 124.548 868.351 122.81 864.862 121.334L852.638 116.162L822.637 187.077L804.51 179.408ZM867.316 159.98L872.118 208.011L852.108 199.545L847.767 151.71L867.316 159.98Z" fill="url(#paint9_linear_57_158)"/>
<path d="M981.061 161.468L947.227 217.209L932.776 208.967L963.491 151.447L981.061 161.468ZM925.589 238.358C922.983 236.871 921.271 234.674 920.453 231.765C919.65 228.831 920.005 226.068 921.518 223.477C922.963 220.882 925.145 219.197 928.065 218.42C930.985 217.643 933.748 217.998 936.354 219.485C938.854 220.911 940.527 223.086 941.371 226.009C942.215 228.933 941.915 231.692 940.47 234.287C939.453 236.009 938.084 237.339 936.363 238.276C934.684 239.202 932.885 239.694 930.969 239.752C929.067 239.783 927.274 239.319 925.589 238.358Z" fill="url(#paint10_linear_57_158)"/>
</g>
<defs>
<filter id="filter0_d_57_158" x="18.6355" y="30.5834" width="971.137" height="222.596" filterUnits="userSpaceOnUse" color-interpolation-filters="sRGB">
<feFlood flood-opacity="0" result="BackgroundImageFix"/>
<feColorMatrix in="SourceAlpha" type="matrix" values="0 0 0 0 0 0 0 0 0 0 0 0 0 0 0 0 0 0 127 0" result="hardAlpha"/>
<feOffset dx="4" dy="4"/>
<feGaussianBlur stdDeviation="2"/>
<feComposite in2="hardAlpha" operator="out"/>
<feColorMatrix type="matrix" values="0 0 0 0 0 0 0 0 0 0 0 0 0 0 0 0 0 0 0.5 0"/>
<feBlend mode="normal" in2="BackgroundImageFix" result="effect1_dropShadow_57_158"/>
<feBlend mode="normal" in="SourceGraphic" in2="effect1_dropShadow_57_158" result="shape"/>
</filter>
<linearGradient id="paint0_linear_57_158" x1="111.174" y1="254.323" x2="44.6295" y2="114.53" gradientUnits="userSpaceOnUse">
<stop offset="0.503975" stop-color="#FF0000"/>
<stop offset="1" stop-color="#200000"/>
</linearGradient>
<linearGradient id="paint1_linear_57_158" x1="188.168" y1="217.924" x2="136.553" y2="71.9665" gradientUnits="userSpaceOnUse">
<stop offset="0.503975" stop-color="#FF0000"/>
<stop offset="1" stop-color="#200000"/>
</linearGradient>
<linearGradient id="paint2_linear_57_158" x1="245.946" y1="196.655" x2="215.49" y2="45.7352" gradientUnits="userSpaceOnUse">
<stop offset="0.503975" stop-color="#FF0000"/>
<stop offset="1" stop-color="#200000"/>
</linearGradient>
<linearGradient id="paint3_linear_57_158" x1="310.563" y1="178.442" x2="281.288" y2="26.3743" gradientUnits="userSpaceOnUse">
<stop offset="0.503975" stop-color="#FF0000"/>
<stop offset="1" stop-color="#200000"/>
</linearGradient>
<linearGradient id="paint4_linear_57_158" x1="376.566" y1="165.522" x2="370.981" y2="11.6604" gradientUnits="userSpaceOnUse">
<stop offset="0.503975" stop-color="#FF0000"/>
<stop offset="1" stop-color="#200000"/>
</linearGradient>
<linearGradient id="paint5_linear_57_158" x1="443.281" y1="158.025" x2="439.047" y2="3.22301" gradientUnits="userSpaceOnUse">
<stop offset="0.503975" stop-color="#FF0000"/>
<stop offset="1" stop-color="#200000"/>
</linearGradient>
<linearGradient id="paint6_linear_57_158" x1="566.246" y1="158.435" x2="586.006" y2="4.88617" gradientUnits="userSpaceOnUse">
<stop offset="0.503975" stop-color="#FF0000"/>
<stop offset="1" stop-color="#200000"/>
</linearGradient>
<linearGradient id="paint7_linear_57_158" x1="650.694" y1="169.431" x2="685.995" y2="18.6855" gradientUnits="userSpaceOnUse">
<stop offset="0.503975" stop-color="#FF0000"/>
<stop offset="1" stop-color="#200000"/>
</linearGradient>
<linearGradient id="paint8_linear_57_158" x1="738.998" y1="190.678" x2="789.918" y2="44.4291" gradientUnits="userSpaceOnUse">
<stop offset="0.503975" stop-color="#FF0000"/>
<stop offset="1" stop-color="#200000"/>
</linearGradient>
<linearGradient id="paint9_linear_57_158" x1="823.583" y1="221.137" x2="890.954" y2="81.7505" gradientUnits="userSpaceOnUse">
<stop offset="0.503975" stop-color="#FF0000"/>
<stop offset="1" stop-color="#200000"/>
</linearGradient>
<linearGradient id="paint10_linear_57_158" x1="910.976" y1="264.35" x2="1000.36" y2="138.65" gradientUnits="userSpaceOnUse">
<stop offset="0.503975" stop-color="#FF0000"/>
<stop offset="1" stop-color="#200000"/>
</linearGradient>
</defs>
</svg>
